<?xml version="1.0" encoding="UTF-8" standalone="no"?>
<svg
   xmlns:dc="http://purl.org/dc/elements/1.1/"
   xmlns:cc="http://creativecommons.org/ns#"
   xmlns:rdf="http://www.w3.org/1999/02/22-rdf-syntax-ns#"
   xmlns:svg="http://www.w3.org/2000/svg"
   xmlns="http://www.w3.org/2000/svg"
   xmlns:sodipodi="http://sodipodi.sourceforge.net/DTD/sodipodi-0.dtd"
   xmlns:inkscape="http://www.inkscape.org/namespaces/inkscape"
   id="ic_empty_zxnk"
   width="100"
   height="100"
   viewBox="0 0 100 100"
   version="1.1"
   sodipodi:docname="img-empty-privacy.svg"
   inkscape:version="1.0 (4035a4fb49, 2020-05-01)">
  <metadata
     id="metadata36203">
    <rdf:RDF>
      <cc:Work
         rdf:about="">
        <dc:format>image/svg+xml</dc:format>
        <dc:type
           rdf:resource="http://purl.org/dc/dcmitype/StillImage" />
      </cc:Work>
    </rdf:RDF>
  </metadata>
  <sodipodi:namedview
     inkscape:document-rotation="0"
     pagecolor="#ffffff"
     bordercolor="#666666"
     borderopacity="1"
     objecttolerance="10"
     gridtolerance="10"
     guidetolerance="10"
     inkscape:pageopacity="0"
     inkscape:pageshadow="2"
     inkscape:window-width="1525"
     inkscape:window-height="695"
     id="namedview36201"
     showgrid="false"
     inkscape:zoom="8.5"
     inkscape:cx="50"
     inkscape:cy="50"
     inkscape:window-x="0"
     inkscape:window-y="0"
     inkscape:window-maximized="0"
     inkscape:current-layer="Group_9086" />
  <defs
     id="defs36184">
    <style
       type="text/css"
       id="style36182">
            .cls-1{fill:#d6d6d6}.cls-2{fill:#666}.cls-3{fill:none}
        </style>
  </defs>
  <g
     id="Group_9086"
     data-name="Group 9086">
    <path
       id="Path_19031"
       d="M 50,26.588235 A 24,24 0 1 0 74,50.588236 24,24 0 0 0 50,26.588235 Z m 0,42.000001 a 18,18 0 1 1 18,-18 18,18 0 0 1 -18,18 z"
       class="cls-1"
       data-name="Path 19031" />
    <g
       id="Group_9085"
       data-name="Group 9085">
      <g
         id="Group_9083"
         data-name="Group 9083">
        <path
           id="Path_19032"
           d="M50 31a19 19 0 1 0 19 19 19.021 19.021 0 0 0-19-19zm0 36a17 17 0 1 1 17-17 17.019 17.019 0 0 1-17 17z"
           class="cls-2"
           data-name="Path 19032" />
        <path
           id="Rectangle_4749"
           d="M0 0h2v4H0z"
           class="cls-2"
           data-name="Rectangle 4749"
           transform="translate(83 56)" />
        <path
           id="Rectangle_4750"
           d="M0 0h2v8H0z"
           class="cls-2"
           data-name="Rectangle 4750"
           transform="translate(83 44)" />
        <path
           id="Rectangle_4751"
           d="M0 0h2v8H0z"
           class="cls-2"
           data-name="Rectangle 4751"
           transform="translate(15 48)" />
        <path
           id="Rectangle_4752"
           d="M0 0h2v4H0z"
           class="cls-2"
           data-name="Rectangle 4752"
           transform="translate(15 40)" />
        <path
           id="Path_19033"
           d="M95.162 71H85v-7h-2v9h7.838L76 90.456 61.162 73H68v-2h-4.461a24.989 24.989 0 0 0-22.4-44.374L24 6.456 4.838 29H15v7h2v-9H9.162L24 9.544 38.838 27H32v2h4.461a24.989 24.989 0 0 0 22.4 44.374L76 93.544zM27 50a23 23 0 1 1 23 23 23.026 23.026 0 0 1-23-23z"
           class="cls-2"
           data-name="Path 19033" />
      </g>
      <text
         transform="scale(0.80811216,1.237452)"
         id="text27473"
         y="50.814072"
         x="50.725861"
         style="font-style:italic;font-variant:normal;font-weight:bold;font-stretch:normal;font-size:29.4166px;line-height:1.25;font-family:sans-serif;-inkscape-font-specification:'sans-serif Bold Italic';fill:#666666;fill-opacity:1;stroke-width:5.51561;"
         xml:space="preserve"><tspan
           style="fill:#666666;fill-opacity:1;stroke-width:5.51561;"
           y="50.814072"
           x="50.725861"
           id="tspan27471"
           sodipodi:role="line">Z</tspan></text>
      <text
         xml:space="preserve"
         style="font-style:italic;font-variant:normal;font-weight:bold;font-stretch:normal;font-size:14.6667px;line-height:1.25;font-family:sans-serif;-inkscape-font-specification:'sans-serif Bold Italic';fill:#d6d6d6;fill-opacity:1;stroke-width:2.95465;"
         x="39.575279"
         y="50.692966"
         id="text851"
         transform="scale(0.91316996,1.0950864)"><tspan
           sodipodi:role="line"
           id="tspan849"
           x="39.575279"
           y="50.692966"
           style="font-style:italic;font-variant:normal;font-weight:bold;font-stretch:normal;font-size:14.6667px;font-family:sans-serif;-inkscape-font-specification:'sans-serif Bold Italic';fill:#d6d6d6;fill-opacity:1;stroke-width:2.95465;">Xnk</tspan></text>
    </g>
  </g>
  <path
     id="Rectangle_4753"
     d="M0 0h100v100H0z"
     class="cls-3"
     data-name="Rectangle 4753" />
</svg>
