<?xml version="1.0" encoding="UTF-8" standalone="no"?>
<svg
   xmlns:dc="http://purl.org/dc/elements/1.1/"
   xmlns:cc="http://creativecommons.org/ns#"
   xmlns:rdf="http://www.w3.org/1999/02/22-rdf-syntax-ns#"
   xmlns:svg="http://www.w3.org/2000/svg"
   xmlns="http://www.w3.org/2000/svg"
   xmlns:sodipodi="http://sodipodi.sourceforge.net/DTD/sodipodi-0.dtd"
   xmlns:inkscape="http://www.inkscape.org/namespaces/inkscape"
   id="ic_empty_Dark_zpiv"
   width="100"
   height="100"
   viewBox="0 0 100 100"
   version="1.1"
   sodipodi:docname="img-empty-privacy-dark.svg"
   inkscape:version="1.0 (4035a4fb49, 2020-05-01)">
  <metadata
     id="metadata27686">
    <rdf:RDF>
      <cc:Work
         rdf:about="">
        <dc:format>image/svg+xml</dc:format>
        <dc:type
           rdf:resource="http://purl.org/dc/dcmitype/StillImage" />
      </cc:Work>
    </rdf:RDF>
  </metadata>
  <sodipodi:namedview
     inkscape:document-rotation="0"
     pagecolor="#ffffff"
     bordercolor="#666666"
     borderopacity="1"
     objecttolerance="10"
     gridtolerance="10"
     guidetolerance="10"
     inkscape:pageopacity="0"
     inkscape:pageshadow="2"
     inkscape:window-width="1920"
     inkscape:window-height="1017"
     id="namedview27684"
     showgrid="false"
     inkscape:zoom="8.5"
     inkscape:cx="50"
     inkscape:cy="50"
     inkscape:window-x="-8"
     inkscape:window-y="-8"
     inkscape:window-maximized="1"
     inkscape:current-layer="Group_9080" />
  <defs
     id="defs27667">
    <style
       type="text/css"
       id="style27665">
            .cls-1{fill:#736412}.cls-2{fill:#c9b970}.cls-3{fill:none}
        </style>
  </defs>
  <g
     id="Group_9081"
     data-name="Group 9081">
    <path
       id="Path_19026"
       d="M50 26a24 24 0 1 0 24 24 24 24 0 0 0-24-24zm0 42a18 18 0 1 1 18-18 18 18 0 0 1-18 18z"
       class="cls-1"
       data-name="Path 19026" />
    <g
       id="Group_9080"
       data-name="Group 9080">
      <g
         id="Group_9078"
         data-name="Group 9078">
        <path
           id="Path_19027"
           d="M50 31a19 19 0 1 0 19 19 19.021 19.021 0 0 0-19-19zm0 36a17 17 0 1 1 17-17 17.019 17.019 0 0 1-17 17z"
           class="cls-2"
           data-name="Path 19027" />
        <path
           id="Rectangle_4744"
           d="M0 0h2v4H0z"
           class="cls-2"
           data-name="Rectangle 4744"
           transform="translate(83 56)" />
        <path
           id="Rectangle_4745"
           d="M0 0h2v8H0z"
           class="cls-2"
           data-name="Rectangle 4745"
           transform="translate(83 44)" />
        <path
           id="Rectangle_4746"
           d="M0 0h2v8H0z"
           class="cls-2"
           data-name="Rectangle 4746"
           transform="translate(15 48)" />
        <path
           id="Rectangle_4747"
           d="M0 0h2v4H0z"
           class="cls-2"
           data-name="Rectangle 4747"
           transform="translate(15 40)" />
        <path
           id="Path_19028"
           d="M95.162 71H85v-7h-2v9h7.838L76 90.456 61.162 73H68v-2h-4.461a24.989 24.989 0 0 0-22.4-44.374L24 6.456 4.838 29H15v7h2v-9H9.162L24 9.544 38.838 27H32v2h4.461a24.989 24.989 0 0 0 22.4 44.374L76 93.544zM27 50a23 23 0 1 1 23 23 23.026 23.026 0 0 1-23-23z"
           class="cls-2"
           data-name="Path 19028" />
      </g>
      <text
         transform="scale(0.80811216,1.237452)"
         id="text27473"
         y="50.623932"
         x="50.725861"
         style="font-style:italic;font-variant:normal;font-weight:bold;font-stretch:normal;font-size:29.4166px;line-height:1.25;font-family:sans-serif;-inkscape-font-specification:'sans-serif Bold Italic';fill:#736412;fill-opacity:1;stroke-width:5.51561;"
         xml:space="preserve"><tspan
           style="fill:#736412;fill-opacity:1;stroke-width:5.51561;"
           y="50.623932"
           x="50.725861"
           id="tspan27471"
           sodipodi:role="line">Z</tspan></text>
      <text
         xml:space="preserve"
         style="font-style:italic;font-variant:normal;font-weight:bold;font-stretch:normal;font-size:14.6667px;line-height:1.25;font-family:sans-serif;-inkscape-font-specification:'sans-serif Bold Italic';fill:#c9b970;fill-opacity:1;stroke-width:2.95465;"
         x="38.673447"
         y="49.940945"
         id="text851"
         transform="scale(0.91316996,1.0950864)"><tspan
           sodipodi:role="line"
           id="tspan849"
           x="38.673447"
           y="49.940945"
           style="font-style:italic;font-variant:normal;font-weight:bold;font-stretch:normal;font-size:14.6667px;font-family:sans-serif;-inkscape-font-specification:'sans-serif Bold Italic';fill:#c9b970;fill-opacity:1;stroke-width:2.95465;">Xnk</tspan></text>
    </g>
  </g>
  <path
     id="Rectangle_4748"
     d="M0 0h100v100H0z"
     class="cls-3"
     data-name="Rectangle 4748" />
</svg>
