<?xml version="1.0" encoding="UTF-8" standalone="no"?>
<svg
   xmlns:dc="http://purl.org/dc/elements/1.1/"
   xmlns:cc="http://creativecommons.org/ns#"
   xmlns:rdf="http://www.w3.org/1999/02/22-rdf-syntax-ns#"
   xmlns:svg="http://www.w3.org/2000/svg"
   xmlns="http://www.w3.org/2000/svg"
   xmlns:sodipodi="http://sodipodi.sourceforge.net/DTD/sodipodi-0.dtd"
   xmlns:inkscape="http://www.inkscape.org/namespaces/inkscape"
   inkscape:version="1.0 (4035a4fb49, 2020-05-01)"
   sodipodi:docname="img-empty-transactions.svg"
   version="1.1"
   viewBox="0 0 100 100"
   height="100"
   width="100"
   id="ic_empty_transactions">
  <metadata
     id="metadata24">
    <rdf:RDF>
      <cc:Work
         rdf:about="">
        <dc:format>image/svg+xml</dc:format>
        <dc:type
           rdf:resource="http://purl.org/dc/dcmitype/StillImage" />
      </cc:Work>
    </rdf:RDF>
  </metadata>
  <sodipodi:namedview
     inkscape:current-layer="Group_9012"
     inkscape:window-maximized="1"
     inkscape:window-y="-8"
     inkscape:window-x="-8"
     inkscape:cy="50"
     inkscape:cx="50"
     inkscape:zoom="8.5"
     showgrid="false"
     id="namedview22"
     inkscape:window-height="1017"
     inkscape:window-width="1920"
     inkscape:pageshadow="2"
     inkscape:pageopacity="0"
     guidetolerance="10"
     gridtolerance="10"
     objecttolerance="10"
     borderopacity="1"
     bordercolor="#666666"
     pagecolor="#ffffff" />
  <defs
     id="defs4">
    <style
       id="style2"
       type="text/css">
            .cls-1{fill:#d6d6d6}.cls-2{fill:#666}.cls-3{fill:none}
        </style>
  </defs>
  <g
     data-name="Group 9015"
     id="Group_9015">
    <path
       data-name="Path 18970"
       class="cls-1"
       d="M50 26a24 24 0 1 0 24 24 24 24 0 0 0-24-24zm0 42a18 18 0 1 1 18-18 18 18 0 0 1-18 18z"
       id="Path_18970" />
    <g
       data-name="Group 9014"
       id="Group_9014">
      <g
         data-name="Group 9012"
         id="Group_9012">
        <text
           transform="scale(0.91316996,1.0950864)"
           id="text851"
           y="52.426701"
           x="39.480316"
           style="font-style:italic;font-variant:normal;font-weight:bold;font-stretch:normal;font-size:14.6667px;line-height:1.25;font-family:sans-serif;-inkscape-font-specification:'sans-serif Bold Italic';fill:#666666;fill-opacity:1;stroke-width:2.95465"
           xml:space="preserve"><tspan
             style="font-style:italic;font-variant:normal;font-weight:bold;font-stretch:normal;font-size:14.6667px;font-family:sans-serif;-inkscape-font-specification:'sans-serif Bold Italic';fill:#666666;fill-opacity:1;stroke-width:2.95465"
             y="52.426701"
             x="39.480316"
             id="tspan849"
             sodipodi:role="line">Xnk</tspan></text>
      </g>
      <g
         data-name="Group 9013"
         id="Group_9013">
        <path
           data-name="Path 18972"
           class="cls-2"
           d="M50 31a19 19 0 1 0 19 19 19.021 19.021 0 0 0-19-19zm0 36a17 17 0 1 1 17-17 17.019 17.019 0 0 1-17 17z"
           id="Path_18972" />
        <path
           transform="translate(83 56)"
           data-name="Rectangle 4664"
           class="cls-2"
           d="M0 0h2v4H0z"
           id="Rectangle_4664" />
        <path
           transform="translate(83 44)"
           data-name="Rectangle 4665"
           class="cls-2"
           d="M0 0h2v8H0z"
           id="Rectangle_4665" />
        <path
           transform="translate(15 48)"
           data-name="Rectangle 4666"
           class="cls-2"
           d="M0 0h2v8H0z"
           id="Rectangle_4666" />
        <path
           transform="translate(15 40)"
           data-name="Rectangle 4667"
           class="cls-2"
           d="M0 0h2v4H0z"
           id="Rectangle_4667" />
        <path
           data-name="Path 18973"
           class="cls-2"
           d="M95.162 71H85v-7h-2v9h7.838L76 90.456 61.162 73H68v-2h-4.461a24.989 24.989 0 0 0-22.4-44.374L24 6.456 4.838 29H15v7h2v-9H9.162L24 9.544 38.838 27H32v2h4.461a24.989 24.989 0 0 0 22.4 44.374L76 93.544zM27 50a23 23 0 1 1 23 23 23.026 23.026 0 0 1-23-23z"
           id="Path_18973" />
      </g>
    </g>
  </g>
  <path
     data-name="Rectangle 4668"
     class="cls-3"
     d="M0 0h100v100H0z"
     id="Rectangle_4668" />
</svg>
