<?xml version="1.0" encoding="UTF-8" standalone="no"?>
<svg
   xmlns:dc="http://purl.org/dc/elements/1.1/"
   xmlns:cc="http://creativecommons.org/ns#"
   xmlns:rdf="http://www.w3.org/1999/02/22-rdf-syntax-ns#"
   xmlns:svg="http://www.w3.org/2000/svg"
   xmlns="http://www.w3.org/2000/svg"
   xmlns:sodipodi="http://sodipodi.sourceforge.net/DTD/sodipodi-0.dtd"
   xmlns:inkscape="http://www.inkscape.org/namespaces/inkscape"
   inkscape:version="1.0 (4035a4fb49, 2020-05-01)"
   sodipodi:docname="img-empty-multisend.svg"
   version="1.1"
   viewBox="0 0 100 100"
   height="100"
   width="100"
   id="ic_empty_multisend">
  <metadata
     id="metadata9878">
    <rdf:RDF>
      <cc:Work
         rdf:about="">
        <dc:format>image/svg+xml</dc:format>
        <dc:type
           rdf:resource="http://purl.org/dc/dcmitype/StillImage" />
      </cc:Work>
    </rdf:RDF>
  </metadata>
  <sodipodi:namedview
     inkscape:current-layer="Group_9030"
     inkscape:window-maximized="1"
     inkscape:window-y="-8"
     inkscape:window-x="-8"
     inkscape:cy="50"
     inkscape:cx="50"
     inkscape:zoom="8.5"
     showgrid="false"
     id="namedview9876"
     inkscape:window-height="1017"
     inkscape:window-width="1920"
     inkscape:pageshadow="2"
     inkscape:pageopacity="0"
     guidetolerance="10"
     gridtolerance="10"
     objecttolerance="10"
     borderopacity="1"
     bordercolor="#666666"
     pagecolor="#ffffff" />
  <defs
     id="defs9855">
    <style
       id="style9853"
       type="text/css">
            .cls-1{fill:#d6d6d6}.cls-2{fill:#666}.cls-3{fill:none}
        </style>
  </defs>
  <g
     data-name="Group 9031"
     id="Group_9031">
    <g
       data-name="Group 9029"
       id="Group_9029">
      <path
         transform="translate(45 18)"
         data-name="Rectangle 4683"
         class="cls-1"
         d="M0 0h10v9H0z"
         id="Rectangle_4683" />
      <g
         data-name="Group 9028"
         id="Group_9028">
        <path
           transform="translate(14 66)"
           data-name="Rectangle 4684"
           class="cls-1"
           d="M0 0h6v10H0z"
           id="Rectangle_4684" />
        <path
           transform="translate(80 66)"
           data-name="Rectangle 4685"
           class="cls-1"
           d="M0 0h6v10H0z"
           id="Rectangle_4685" />
        <path
           transform="translate(47 66)"
           data-name="Rectangle 4686"
           class="cls-1"
           d="M0 0h6v10H0z"
           id="Rectangle_4686" />
      </g>
    </g>
    <g
       data-name="Group 9030"
       id="Group_9030">
      <path
         transform="translate(67 40)"
         data-name="Rectangle 4688"
         class="cls-2"
         d="M0 0h2v4H0z"
         id="Rectangle_4688" />
      <circle
         transform="translate(49 72)"
         data-name="Ellipse 626"
         class="cls-2"
         r="1"
         cy="1"
         cx="1"
         id="Ellipse_626" />
      <circle
         transform="translate(82 72)"
         data-name="Ellipse 627"
         class="cls-2"
         r="1"
         cy="1"
         cx="1"
         id="Ellipse_627" />
      <path
         transform="translate(32 58)"
         data-name="Rectangle 4689"
         class="cls-2"
         d="M0 0h4v2H0z"
         id="Rectangle_4689" />
      <path
         data-name="Path 18986"
         class="cls-2"
         d="M16 65h-3v3H7v4h2v-2h4v7h8v-7h4v21H9V76H7v17h20V68h-6v-3h-3v-5h10v-2H16zm3 2v8h-4v-8z"
         id="Path_18986" />
      <circle
         transform="translate(16 72)"
         data-name="Ellipse 628"
         class="cls-2"
         r="1"
         cy="1"
         cx="1"
         id="Ellipse_628" />
      <path
         data-name="Path 18987"
         class="cls-2"
         d="M87 68v-3h-3v-7H51v-5h18v-5h-2v3H33V28h34v8h2v-8h4V17H59.46A5.994 5.994 0 1 0 50 9.69 5.995 5.995 0 1 0 40.54 17H27v11h4v25h18v5h-9v2h9v5h-3v3h-6v16h2V70h4v7h8v-7h4v21H42v-3h-2v5h20V68h-6v-3h-3v-5h31v5h-3v3h-6v12h2V70h4v7h8v-7h4v21H75v-7h-2v9h20V68zM71 19v7H56v-7zm-20-6a4 4 0 1 1 4 4h-4zm0 6h3v7h-8v-7h5zM45 9a4 4 0 0 1 4 4v4h-4a4 4 0 0 1 0-8zM29 26v-7h15v7H29zm23 41v8h-4v-8zm33 8h-4v-8h4z"
         id="Path_18987" />
      <text
         transform="scale(0.91316996,1.0950864)"
         id="text851"
         y="43.817337"
         x="39.317616"
         style="font-style:italic;font-variant:normal;font-weight:bold;font-stretch:normal;font-size:14.6667px;line-height:1.25;font-family:sans-serif;-inkscape-font-specification:'sans-serif Bold Italic';fill:#666666;fill-opacity:1;stroke-width:2.95465;"
         xml:space="preserve"><tspan
           style="font-style:italic;font-variant:normal;font-weight:bold;font-stretch:normal;font-size:14.6667px;font-family:sans-serif;-inkscape-font-specification:'sans-serif Bold Italic';fill:#666666;fill-opacity:1;stroke-width:2.95465;"
           y="43.817337"
           x="39.317616"
           id="tspan849"
           sodipodi:role="line">Xnk</tspan></text>
    </g>
  </g>
  <path
     data-name="Rectangle 4690"
     class="cls-3"
     d="M0 0h100v100H0z"
     id="Rectangle_4690" />
</svg>
